<svg width="56" height="56" viewBox="0 0 56 56" fill="none" xmlns="http://www.w3.org/2000/svg">
<rect width="56" height="56" rx="18" fill="url(#paint0_linear_153_1558)"/>
<g clip-path="url(#clip0_153_1558)">
<path d="M36.75 30.625V27.5625C36.75 25.3879 34.9871 23.625 32.8125 23.625H31.0625C30.3376 23.625 29.75 23.0374 29.75 22.3125V20.5625C29.75 18.3879 27.9871 16.625 25.8125 16.625H23.625M29.7278 32.3528L31.5 34.125M26.25 16.625H20.5625C19.838 16.625 19.25 17.213 19.25 17.9375V38.0625C19.25 38.787 19.838 39.375 20.5625 39.375H35.4375C36.162 39.375 36.75 38.787 36.75 38.0625V27.125C36.75 21.326 32.049 16.625 26.25 16.625L36.75 30.625M41.125 44.1875C41.125 45.8777 39.7527 47.25 38.0625 47.25C36.3723 47.25 35 45.8777 35 44.1875C35 42.4973 36.3723 41.125 38.0625 41.125C39.7527 41.125 41.125 42.4973 41.125 44.1875V44.1875" stroke="#DC8F5F" stroke-width="1.75" stroke-linecap="round" stroke-linejoin="round"/>
</g>
<rect x="37" y="37" width="14" height="14" rx="7" fill="#DC8F5F"/>
<rect x="37" y="37" width="14" height="14" rx="7" stroke="#FEF8F4" stroke-width="2"/>
<path fill-rule="evenodd" clip-rule="evenodd" d="M47.9579 40.313C48.1302 40.4279 48.1768 40.6607 48.0619 40.833L43.5619 47.583C43.4996 47.6764 43.3987 47.7369 43.2869 47.748C43.1752 47.759 43.0643 47.7194 42.9849 47.64L39.9849 44.64C39.8472 44.4923 39.8513 44.262 39.9941 44.1192C40.1369 43.9764 40.3672 43.9723 40.5149 44.11L43.1914 46.7865L47.4379 40.417C47.5528 40.2447 47.7856 40.1981 47.9579 40.313Z" fill="#FEF8F4"/>
<defs>
<linearGradient id="paint0_linear_153_1558" x1="0" y1="0" x2="56" y2="56" gradientUnits="userSpaceOnUse">
<stop stop-color="#FFEDD5"/>
<stop offset="1" stop-color="#FFF7ED"/>
</linearGradient>
<clipPath id="clip0_153_1558">
<rect width="28" height="28" fill="white" transform="translate(14 14)"/>
</clipPath>
</defs>
</svg>
